HIERARCHY
ROOT Hips
{
  OFFSET -0.140052 91.4537 0.142408
  CHANNELS 6 Xposition Yposition Zposition Zrotation Xrotation Yrotation
  JOINT Spine
  {
    OFFSET -0.000355721 21.3001 -0.016921
    CHANNELS 3 Zrotation Xrotation Yrotation
    JOINT LeftArm
    {
      OFFSET 13.5181 21.3012 0
      CHANNELS 3 Zrotation Xrotation Yrotation
      JOINT LeftForeArm
      {
        OFFSET 24.5783 0 0
        CHANNELS 3 Zrotation Xrotation Yrotation
        JOINT LeftHand
        {
          OFFSET 24.5783 0 0
          CHANNELS 3 Zrotation Xrotation Yrotation
          End Site
          {
            OFFSET 7.32568 1.52588e-05 0.0169305
          }
        }
      }
    }
    JOINT Head
    {
      OFFSET 0 27.4458 -0.00489235
      CHANNELS 3 Zrotation Xrotation Yrotation
      End Site
      {
        OFFSET 0 0 0
      }
    }
    JOINT RightArm
    {
      OFFSET -13.5174 21.3012 0
      CHANNELS 3 Zrotation Xrotation Yrotation
      JOINT RightForeArm
      {
        OFFSET -24.5783 0 0
        CHANNELS 3 Zrotation Xrotation Yrotation
        JOINT RightHand
        {
          OFFSET -24.5783 0 0
          CHANNELS 3 Zrotation Xrotation Yrotation
          End Site
          {
            OFFSET -7.32568 1.52588e-05 0.0169305
          }
        }
      }
    }
  }
  JOINT RightUpLeg
  {
    OFFSET -8.44614 -9.41038 0.835684
    CHANNELS 3 Zrotation Xrotation Yrotation
    JOINT RightLeg
    {
      OFFSET 0 -40.9639 0
      CHANNELS 3 Zrotation Xrotation Yrotation
      JOINT RightFoot
      {
        OFFSET 0 -40.9639 0
        CHANNELS 3 Zrotation Xrotation Yrotation
        End Site
        {
          OFFSET 0.50614 -9.67405 14.6709
        }
      }
    }
  }
  JOINT LeftUpLeg
  {
    OFFSET 8.44614 -9.41038 0.835684
    CHANNELS 3 Zrotation Xrotation Yrotation
    JOINT LeftLeg
    {
      OFFSET 0 -40.9639 0
      CHANNELS 3 Zrotation Xrotation Yrotation
      JOINT LeftFoot
      {
        OFFSET 0 -40.9639 0
        CHANNELS 3 Zrotation Xrotation Yrotation
        End Site
        {
          OFFSET -0.50614 -9.67405 14.6709
        }
      }
    }
  }
}
MOTION
Frames:	11
Frame Time:	0.0333333
-0.14006 91.4536 0.142407 -5.75385 -0.72149 -54.2061 4.46878 2.3064 1.39526 -44.4321 -29.1803 -18.9345 -0.011644 -4.44251e-05 -89.1489 -6.43183 -16.7242 10.7922 -8.20683 8.21006 29.4942 52.6628 3.9421 54.3584 0.000213034 4.19749e-06 105.967 -8.61405 -12.7091 27.0311 -9.89697 -3.37072 -18.4484 -3.12568 36.2819 -6.83221 17.3351 -51.6711 2.06895 21.4318 -17.0456 20.8104 6.83868 30.357 -1.02616 -18.1701 -32.5126 -4.7862 
-0.159662 91.4605 0.216854 -5.84465 -0.807483 -54.5286 4.43088 2.34584 1.4225 -44.3435 -29.3324 -18.6892 -0.011644 -4.22179e-05 -89.1912 -6.38337 -16.9331 10.9418 -8.18981 8.33364 29.6982 52.8251 4.1576 54.3641 0.000213037 4.18908e-06 105.934 -8.33826 -12.3927 26.9478 -9.97568 -3.23431 -18.4602 -3.24771 36.2019 -6.77721 17.7311 -51.5485 2.60035 21.4928 -16.7532 20.9731 6.71139 30.4844 -0.773431 -18.1586 -32.6458 -4.82595 
-0.157568 91.4683 0.298068 -5.86987 -0.904901 -54.7841 4.38962 2.37514 1.43872 -44.2672 -29.4391 -18.5099 -0.011644 -4.08178e-05 -89.218 -6.34039 -17.0353 11.1282 -8.18857 8.47036 29.866 52.9532 4.29769 54.3455 0.000213042 4.17154e-06 105.866 -7.94449 -12.0803 26.8625 -10.1226 -3.15418 -18.5014 -3.35812 36.1449 -6.79329 18.1784 -51.407 3.17878 21.4372 -16.5524 21.0369 6.62687 30.582 -0.535236 -18.1375 -32.7587 -4.8367 
-0.140318 91.4805 0.386757 -5.84037 -1.02128 -55.0068 4.33307 2.39501 1.44826 -44.2038 -29.5026 -18.3641 -0.0116441 -3.9309e-05 -89.2469 -6.32809 -17.0759 11.3527 -8.21501 8.61318 30.0225 53.0303 4.39276 54.3034 0.000213048 4.1503e-06 105.783 -7.61378 -11.7963 26.7428 -10.3423 -3.11112 -18.5774 -3.45496 36.0949 -6.77203 18.5735 -51.2661 3.69522 21.2862 -16.3972 21.0314 6.55933 30.6199 -0.369869 -18.0866 -32.8565 -4.79405 
-0.122107 91.5025 0.48743 -5.79425 -1.16725 -55.2984 4.24963 2.40851 1.45958 -44.1476 -29.5393 -18.194 -0.0116441 -3.70165e-05 -89.2908 -6.38862 -17.1035 11.5538 -8.27687 8.75342 30.2069 53.0392 4.46194 54.2496 0.000213052 4.13673e-06 105.73 -7.55524 -11.596 26.5375 -10.6216 -3.06486 -18.6756 -3.56491 36.0182 -6.5164 18.7716 -51.1532 3.99754 21.093 -16.1778 21.0225 6.46545 30.5778 -0.282935 -18.0056 -32.9561 -4.70191 
-0.11117 91.5389 0.601654 -5.75523 -1.36086 -55.7191 4.13895 2.41822 1.4784 -44.0835 -29.5718 -17.9539 -0.0116441 -3.49251e-05 -89.3309 -6.56577 -17.1186 11.6087 -8.37911 8.89706 30.4507 52.9821 4.4843 54.204 0.000213051 4.13856e-06 105.737 -7.81067 -11.533 26.2396 -10.9451 -2.98948 -18.7773 -3.73548 35.8905 -5.93925 18.7368 -51.0715 4.04186 20.8619 -15.8187 21.0254 6.33315 30.424 -0.289512 -17.8962 -33.0635 -4.55084 
-0.10674 91.5829 0.723186 -5.71287 -1.61806 -56.2317 4.0169 2.4243 1.50143 -43.9905 -29.6123 -17.6425 -0.0116441 -3.53031e-05 -89.3237 -6.84923 -17.0804 11.4345 -8.54522 9.08679 30.7802 52.8947 4.44079 54.1598 0.000213048 4.14983e-06 105.781 -8.1976 -11.5979 25.9425 -11.3141 -2.90359 -18.8718 -3.99763 35.7478 -5.15446 18.6046 -51.0098 3.95708 20.562 -15.3507 21.0104 6.17465 30.1699 -0.409533 -17.7532 -33.1795 -4.33153 
-0.115392 91.6086 0.839275 -5.65546 -1.96142 -56.8052 3.90081 2.42819 1.5181 -43.8622 -29.6633 -17.2755 -0.0116441 -3.80328e-05 -89.2714 -7.11075 -17.0098 11.1024 -8.84422 9.40363 31.2579 52.8188 4.40505 54.0182 0.000213045 4.1593e-06 105.818 -8.5491 -11.6972 25.7966 -11.7643 -2.86335 -18.9643 -4.36225 35.7241 -4.25687 18.5283 -51.0118 3.89452 20.1806 -14.8379 20.9633 6.01032 29.9411 -0.461267 -17.6388 -33.3131 -4.12615 
-0.158387 91.5793 0.930037 -5.60274 -2.45742 -57.48 3.78115 2.43581 1.52006 -43.7431 -29.7292 -16.843 -0.0116441 -3.77154e-05 -89.2774 -7.14287 -17.0499 10.819 -9.39613 9.93417 32.0043 52.7581 4.53697 53.5708 0.000213043 4.16802e-06 105.852 -8.93364 -11.7009 25.8727 -12.3847 -2.90382 -19.0854 -4.84512 36.0112 -3.16125 18.5626 -51.1878 3.91734 19.6698 -14.2709 20.8438 5.90715 29.8917 -0.0622019 -17.717 -33.4647 -4.08749 
-0.262454 91.4685 0.964282 -5.5941 -3.21585 -58.2949 3.60756 2.45572 1.50719 -43.7271 -29.8175 -16.3145 -0.0116442 -2.66362e-05 -89.4897 -6.83041 -17.3667 10.7651 -10.3317 10.7251 33.1383 52.69 4.9331 52.6009 0.000213036 4.19113e-06 105.942 -9.494 -11.5229 26.0578 -13.2733 -3.00486 -19.2682 -5.49471 36.755 -1.72752 18.7016 -51.6436 4.034 18.9171 -13.5581 20.5625 5.95127 30.0351 0.929482 -18.1076 -33.6201 -4.25033 
-0.440286 91.2678 0.898331 -5.65068 -4.32734 -59.2132 3.31777 2.49762 1.48671 -43.8809 -29.9073 -15.6936 -0.0116443 -3.23171e-06 -89.9381 -6.28715 -17.968 10.9472 -11.7153 11.7679 34.6661 52.6293 5.51511 51.0427 0.000213023 4.23642e-06 106.119 -10.0849 -11.1858 26.0999 -14.4756 -3.1308 -19.5121 -6.37254 37.9956 0.0647717 18.9363 -52.4184 4.25136 17.8376 -12.6136 20.0744 6.15348 30.2387 2.18603 -18.7455 -33.7696 -4.45753 
